#!OML:ASF H:\MichaelJackson\Top Level 1\Subject 1\Session 1\male.ASF
:FULLY-SPECIFIED
:DEGREES
264
root 23.997 16.4539 12.1916 -177.468 -56.9586 -172.465
lowerback -0.16293 1.52087 3.42435
upperback -0.282304 2.01535 0.658859
thorax -0.103534 0.997368 -1.2391
lowerneck -8.48147 -2.30112 5.94075
upperneck 12.582 -3.23505 -6.12255
head 4.96177 -1.76238 -3.0984
rclavicle -5.23176e-014 1.16289e-014
rhumerus -49.4888 -10.2282 -79.0213
rradius 62.1802
rwrist 13.4991
rhand -28.5731 -17.2532
rfingers 7.12502
rthumb -1.93941 -47.2241
lclavicle -5.23176e-014 1.16289e-014
lhumerus -40.5665 -15.9172 82.7332
lradius 62.522
lwrist 20.1954
lhand -14.5411 6.74095
lfingers 7.12502
lthumb 11.6073 36.3995
rfemur -19.0405 16.033 13.2971
rtibia 61.1132
rfoot 40.2386 25.6473
rtoes 10.0934
lfemur -38.4894 20.1881 -31.2792
ltibia 43.7563
lfoot -23.2003 13.5556
ltoes 17.0053
265
root 23.9538 16.4556 12.1511 -178.035 -59.1306 -172.216
lowerback -0.00924634 1.35332 3.41193
upperback -0.193631 1.7978 0.613513
thorax -0.107864 0.890172 -1.28219
lowerneck -8.41353 -2.3258 6.01862
upperneck 12.4957 -3.25091 -6.30968
head 4.91734 -1.77743 -3.16734
rclavicle -6.75371e-014 1.80894e-014
rhumerus -49.6705 -10.3648 -79.0307
rradius 62.3768
rwrist 13.1538
rhand -28.2481 -17.0326
rfingers 7.12502
rthumb -1.6255 -47.0062
lclavicle -6.75371e-014 1.80894e-014
lhumerus -40.5308 -15.8885 82.7249
lradius 62.4338
lwrist 20.3963
lhand -14.4896 7.04208
lfingers 7.12502
lthumb 11.657 36.6978
rfemur -20.6599 17.8885 11.8188
rtibia 62.5656
rfoot 38.3799 24.8109
rtoes 9.43789
lfemur -37.6555 19.1272 -31.1145
ltibia 43.5787
lfoot -23.286 12.7945
ltoes 16.5033
266
root 23.9125 16.4584 12.1123 -178.676 -61.2529 -171.851
lowerback 0.153345 1.19459 3.40775
upperback -0.1005 1.59168 0.592212
thorax -0.112802 0.788475 -1.30466
lowerneck -8.34142 -2.35586 6.07958
upperneck 12.3561 -3.27247 -6.49427
head 4.85574 -1.7954 -3.23171
rclavicle -5.82936e-014 1.0138e-014
rhumerus -49.824 -10.438 -79.0282
rradius 62.5655
rwrist 12.815
rhand -27.9504 -16.9918
rfingers 7.12502
rthumb -1.338 -46.9673
lclavicle -5.82936e-014 1.0138e-014
lhumerus -40.471 -15.7905 82.7662
lradius 62.3113
lwrist 20.5169
lhand -14.4911 7.31781
lfingers 7.12502
lthumb 11.6556 36.9736
rfemur -22.394 19.566 10.2744
rtibia 64.0233
rfoot 36.417 23.3563
rtoes 9.08862
lfemur -36.875 18.1203 -30.935
ltibia 43.3958
lfoot -23.3798 12.0394
ltoes 15.9178
267
root 23.8729 16.4632 12.0757 -179.357 -63.3211 -171.417
lowerback 0.326763 1.05416 3.40124
upperback -0.00355249 1.41004 0.574849
thorax -0.119017 0.698922 -1.32127
lowerneck -8.26412 -2.39839 6.12516
upperneck 12.1778 -3.31082 -6.66778
head 4.78078 -1.82113 -3.28996
rclavicle -7.1314e-015 2.23633e-014
rhumerus -49.9615 -10.4782 -79.0188
rradius 62.7367
rwrist 12.5227
rhand -27.7384 -17.1002
rfingers 7.12502
rthumb -1.13324 -47.077
lclavicle -7.1314e-015 2.23633e-014
lhumerus -40.3909 -15.6626 82.8571
lradius 62.1583
lwrist 20.5303
lhand -14.5484 7.55849
lfingers 7.12502
lthumb 11.6003 37.2174
rfemur -24.2394 21.0052 8.64495
rtibia 65.475
rfoot 34.3933 21.3713
rtoes 8.87258
lfemur -36.1259 17.1392 -30.7623
ltibia 43.1857
lfoot -23.4638 11.3073
ltoes 15.2934
268
root 23.8354 16.4706 12.041 -180.103 -65.332 -170.891
lowerback 0.521738 0.932604 3.39691
upperback 0.0908985 1.25429 0.558486
thorax -0.138682 0.621976 -1.3379
lowerneck -8.17388 -2.45335 6.15556
upperneck 11.9731 -3.36652 -6.8242
head 4.69501 -1.85451 -3.34035
rclavicle -2.94698e-014 4.17448e-015
rhumerus -50.0898 -10.4877 -79.0158
rradius 62.8852
rwrist 12.2909
rhand -27.6363 -17.3367
rfingers 7.12502
rthumb -1.03467 -47.3139
lclavicle -2.94698e-014 4.17448e-015
lhumerus -40.3071 -15.5389 82.9923
lradius 61.9832
lwrist 20.4616
lhand -14.6747 7.7697
lfingers 7.12502
lthumb 11.4785 37.4354
rfemur -26.1811 22.1874 6.95711
rtibia 66.8878
rfoot 32.4387 18.8359
rtoes 9.03044
lfemur -35.3916 16.1281 -30.5723
ltibia 42.9302
lfoot -23.5119 10.6365
ltoes 14.7032
269
root 23.7995 16.4813 12.0079 -180.877 -67.3075 -170.329
lowerback 0.744411 0.824777 3.37599
upperback 0.182671 1.11791 0.52725
thorax -0.175778 0.55443 -1.3604
lowerneck -8.08488 -2.51403 6.18551
upperneck 11.7765 -3.4322 -6.96746
head 4.61157 -1.89187 -3.38714
rclavicle 1.68222e-014 3.97569e-016
rhumerus -50.2154 -10.492 -79.0191
rradius 63.0122
rwrist 12.1491
rhand -27.6193 -17.6617
rfingers 7.12502
rthumb -1.01825 -47.639
lclavicle 1.68222e-014 3.97569e-016
lhumerus -40.2204 -15.441 83.1563
lradius 61.7842
lwrist 20.3084
lhand -14.7968 7.94335
lfingers 7.12502
lthumb 11.3607 37.6156
rfemur -28.1773 23.0866 5.20225
rtibia 68.221
rfoot 30.6735 15.7212
rtoes 9.96356
lfemur -34.6441 15.022 -30.3835
ltibia 42.6143
lfoot -23.4955 10.0622
ltoes 14.1527
270
root 23.7653 16.4952 11.9767 -181.715 -69.2599 -169.696
lowerback 0.995387 0.720905 3.3404
upperback 0.277347 0.987477 0.492045
thorax -0.225706 0.489623 -1.37849
lowerneck -8.07595 -2.56271 6.09842
upperneck 11.6984 -3.48929 -6.93339
head 4.58454 -1.92006 -3.36324
rclavicle -3.37934e-015 2.28602e-015
rhumerus -50.3213 -10.4715 -79.0309
rradius 63.108
rwrist 12.11
rhand -27.7137 -18.0307
rfingers 7.12502
rthumb -1.10945 -48.0076
lclavicle -3.37934e-015 2.28602e-015
lhumerus -40.1282 -15.3458 83.3541
lradius 61.5625
lwrist 20.1111
lhand -14.9346 8.10332
lfingers 7.12502
lthumb 11.2279 37.7829
rfemur -30.1956 23.6972 3.41715
rtibia 69.4274
rfoot 29.1059 12.1479
rtoes 11.6464
lfemur -33.8762 13.7617 -30.1801
ltibia 42.2378
lfoot -23.4053 9.6093
ltoes 13.7506
